<?xml version="1.0" encoding="iso-8859-1"?>
<!-- Generator: Adobe Illustrator 19.0.0, SVG Export Plug-In . SVG Version: 6.00 Build 0)  -->
<svg version="1.1" id="Layer_1" xmlns="http://www.w3.org/2000/svg" xmlns:xlink="http://www.w3.org/1999/xlink" x="0px" y="0px"
	 viewBox="0 0 472.615 472.615" style="enable-background:new 0 0 472.615 472.615;" xml:space="preserve">
<g>
	<g>
		<path d="M404.671,62.369c-33.84-11.598-32.844-46.209-32.787-47.674l-0.035-0.003V0.971h-19.614v325.06
			c-24.423-24.829-68.413-35.239-113.135-23.455c-34.52,9.021-63.058,29.224-78.258,55.31
			c-10.592,18.142-13.632,37.267-8.827,55.408c9.513,35.797,48.251,58.35,93.754,58.35c11.965,0,24.322-1.569,36.874-4.803
			c34.521-9.122,63.059-29.325,78.26-55.41c7.308-12.635,10.912-25.743,10.857-38.67h0.089V64.423
			c6.627,6.783,15.236,12.659,26.464,16.506C438.238,94.606,456,128.355,452.6,184.094l19.575,1.187
			C476.13,120.425,453.418,79.071,404.671,62.369z"/>
	</g>
</g>
<g>
	<g>
		<rect y="0.975" width="302.799" height="19.614"/>
	</g>
</g>
<g>
	<g>
		<rect y="78.05" width="302.799" height="19.614"/>
	</g>
</g>
<g>
	<g>
		<rect y="155.136" width="302.799" height="19.614"/>
	</g>
</g>
<g>
	<g>
		<rect y="232.222" width="302.799" height="19.614"/>
	</g>
</g>
<g>
</g>
<g>
</g>
<g>
</g>
<g>
</g>
<g>
</g>
<g>
</g>
<g>
</g>
<g>
</g>
<g>
</g>
<g>
</g>
<g>
</g>
<g>
</g>
<g>
</g>
<g>
</g>
<g>
</g>
</svg>
