<?xml version="1.0" encoding="iso-8859-1"?>
<!-- Generator: Adobe Illustrator 19.0.0, SVG Export Plug-In . SVG Version: 6.00 Build 0)  -->
<svg version="1.1" id="Layer_1" xmlns="http://www.w3.org/2000/svg" xmlns:xlink="http://www.w3.org/1999/xlink" x="0px" y="0px"
	 viewBox="0 0 335 335" style="enable-background:new 0 0 335 335;" xml:space="preserve">
<g id="XMLID_509_">
	<g>
		<g>
			<path d="M242.188,117.236V28.219L116.584,85.312H30.938v41.25H0v81.875h30.938v41.25h85.646l125.604,57.093v-89.017
				c23.487-4.666,41.25-25.427,41.25-50.264C283.438,142.662,265.676,121.901,242.188,117.236z M30.938,188.437H20v-41.875h10.938
				V188.437z M222.188,275.719l-101.271-46.032H50.938V105.312h69.979l101.271-46.033V275.719z M242.188,197.099v-59.2
				c12.34,4.181,21.25,15.865,21.25,29.6S254.528,192.919,242.188,197.099z"/>
			<path d="M277.19,81.75l-7.506,18.538C297.213,111.435,315,137.817,315,167.499s-17.787,56.064-45.315,67.211l7.506,18.538
				C312.309,239.028,335,205.37,335,167.499C335,129.628,312.309,95.971,277.19,81.75z"/>
		</g>
	</g>
</g>
<g>
</g>
<g>
</g>
<g>
</g>
<g>
</g>
<g>
</g>
<g>
</g>
<g>
</g>
<g>
</g>
<g>
</g>
<g>
</g>
<g>
</g>
<g>
</g>
<g>
</g>
<g>
</g>
<g>
</g>
</svg>
