<?xml version="1.0" encoding="UTF-8" standalone="no"?>
<!DOCTYPE svg PUBLIC "-//W3C//DTD SVG 1.1//EN" "http://www.w3.org/Graphics/SVG/1.1/DTD/svg11.dtd">
<svg viewBox="0 0 252 252" style="fill-rule:evenodd;clip-rule:evenodd;stroke-linejoin:round;stroke-miterlimit:2;">
    <g>
        <path d="M215.037,36.846C165.908,-12.282 85.974,-12.282 36.846,36.846C-12.281,85.973 -12.281,165.909 36.846,215.036C61.41,239.6 93.676,251.882 125.942,251.882C158.208,251.882 190.473,239.6 215.038,215.036C264.164,165.909 264.164,85.973 215.037,36.846ZM49.574,202.309C7.465,160.2 7.465,91.683 49.574,49.574C70.629,28.52 98.285,17.992 125.941,17.992C153.597,17.992 181.254,28.519 202.308,49.574C244.417,91.683 244.417,160.2 202.308,202.309C160.199,244.417 91.683,244.417 49.574,202.309Z" style="fill:white;fill-rule:nonzero;"/>
        <path d="M194.823,116.941L134.941,116.941L134.941,57.059C134.941,52.088 130.912,48.059 125.941,48.059C120.97,48.059 116.941,52.088 116.941,57.059L116.941,116.941L57.059,116.941C52.088,116.941 48.059,120.97 48.059,125.941C48.059,130.912 52.088,134.941 57.059,134.941L116.941,134.941L116.941,194.823C116.941,199.794 120.97,203.823 125.941,203.823C130.912,203.823 134.941,199.794 134.941,194.823L134.941,134.941L194.823,134.941C199.794,134.941 203.823,130.912 203.823,125.941C203.823,120.97 199.794,116.941 194.823,116.941Z" style="fill:white;fill-rule:nonzero;"/>
    </g>
</svg>
