<?xml version="1.0" encoding="UTF-8" standalone="no"?>
<!DOCTYPE svg PUBLIC "-//W3C//DTD SVG 1.1//EN" "http://www.w3.org/Graphics/SVG/1.1/DTD/svg11.dtd">
<svg width="100%" height="100%" viewBox="0 0 700 500" version="1.1" style="fill-rule:evenodd;clip-rule:evenodd;stroke-linecap:round;stroke-linejoin:round;stroke-miterlimit:1.5;">
  <g transform="matrix(1,0,0,1,-788.559,-1854.65)">
    <g transform="matrix(2.10775,0,0,1.84789,179.704,1423.23)">
      <g transform="matrix(0.714286,0,0,0.714286,121.681,93.7353)">
        <g id="pZbRrO3YO" transform="matrix(0.6371,0,0,0.726692,-632.424,-674.283)">
          <path d="M1842.88,1548.58C1841.78,1548.38 1837.88,1547.48 1834.28,1546.58C1807.88,1540.58 1786.88,1516.78 1783.78,1489.28C1783.28,1484.98 1782.68,1483.08 1781.48,1482.68C1780.58,1482.48 1768.68,1479.98 1754.88,1477.18C1725.58,1471.38 1720.78,1469.38 1711.58,1459.78C1703.68,1451.48 1697.98,1441.88 1688.38,1420.68C1683.88,1410.78 1676.88,1395.68 1672.88,1387.18C1668.88,1378.68 1664.58,1368.88 1663.28,1365.48C1661.98,1361.98 1660.58,1359.18 1660.28,1359.18C1659.88,1359.18 1656.38,1364.08 1652.38,1370.18L1645.18,1381.08L1650.78,1387.38C1657.18,1394.58 1662.18,1403.58 1665.38,1413.68C1668.68,1424.18 1668.58,1441.78 1665.08,1452.48C1657.18,1476.78 1636.48,1494.98 1611.78,1499.28C1607.88,1499.98 1600.98,1500.18 1595.48,1499.88C1571.88,1498.58 1550.48,1484.28 1539.88,1462.88C1524.88,1432.58 1533.48,1397.48 1561.08,1377.08C1577.38,1364.88 1601.58,1361.18 1621.28,1367.78C1623.68,1368.58 1626.38,1369.68 1627.28,1370.18C1629.08,1371.08 1631.78,1367.48 1656.58,1329.18C1666.88,1313.28 1671.28,1308.38 1678.18,1304.98C1685.28,1301.58 1690.98,1301.68 1709.38,1305.18C1718.48,1306.98 1725.98,1308.48 1726.18,1308.68C1726.38,1308.78 1725.68,1313.08 1724.78,1318.08C1723.38,1325.58 1722.78,1327.18 1721.48,1326.78C1717.68,1325.68 1691.68,1320.98 1689.08,1320.88C1687.58,1320.88 1685.28,1321.88 1683.88,1323.18C1680.68,1326.18 1666.88,1347.08 1667.68,1347.78C1667.98,1348.18 1675.68,1349.88 1684.68,1351.58C1693.78,1353.38 1702.28,1355.58 1703.68,1356.48C1706.18,1358.08 1708.68,1362.68 1717.18,1381.68C1727.08,1403.98 1726.78,1402.78 1725.38,1410.38C1724.78,1414.18 1723.18,1419.18 1721.98,1421.48C1718.48,1427.88 1717.98,1432.48 1719.98,1438.78C1723.38,1449.48 1732.28,1455.38 1747.38,1456.68C1749.58,1456.88 1756.78,1457.88 1769.58,1459.78C1771.38,1459.98 1775.78,1460.48 1779.38,1460.78L1785.88,1461.38L1788.78,1454.28C1795.68,1437.18 1811.88,1422.28 1829.78,1416.58C1850.68,1409.88 1873.68,1413.48 1890.68,1426.08C1902.78,1434.98 1913.38,1450.68 1916.88,1464.78C1920.48,1479.18 1918.58,1496.48 1911.98,1510.28C1907.88,1518.88 1899.28,1529.68 1892.58,1534.68C1886.58,1539.18 1874.68,1544.98 1868.08,1546.78C1862.58,1548.18 1846.28,1549.38 1842.88,1548.58ZM1861.58,1531.68C1894.18,1525.08 1912.08,1488.58 1897.48,1458.68C1888.98,1441.38 1873.28,1430.68 1854.68,1429.48C1839.18,1428.38 1825.18,1433.68 1814.68,1444.28C1809.48,1449.68 1802.38,1460.18 1802.38,1462.78C1802.38,1463.78 1805.28,1464.48 1815.88,1465.78C1817.58,1465.98 1822.38,1466.68 1826.58,1467.18C1830.88,1467.78 1835.78,1468.48 1837.58,1468.68C1839.38,1468.98 1844.48,1469.58 1848.88,1470.18C1853.28,1470.78 1859.08,1471.58 1861.88,1471.78C1864.58,1472.08 1867.08,1472.48 1867.28,1472.78C1868.18,1473.68 1862.98,1498.18 1861.98,1498.18C1861.38,1498.18 1847.18,1495.48 1830.38,1492.18C1813.68,1488.98 1799.78,1486.38 1799.68,1486.58C1799.48,1486.78 1799.88,1489.28 1800.48,1492.28C1803.38,1506.28 1814.38,1520.58 1826.88,1526.78C1837.98,1532.28 1850.18,1533.98 1861.58,1531.68ZM1616.88,1481.48C1631.28,1476.08 1640.18,1468.08 1646.48,1454.88C1653.78,1439.58 1653.78,1424.38 1646.58,1409.28C1644.48,1404.98 1637.38,1395.18 1636.38,1395.18C1636.08,1395.28 1629.38,1405.18 1621.48,1417.28C1607.18,1439.18 1604.48,1442.18 1599.38,1442.18C1598.18,1442.18 1595.88,1440.88 1594.28,1439.28C1588.58,1433.58 1589.98,1430.28 1610.08,1400.48C1620.48,1385.08 1620.58,1384.78 1618.28,1383.88C1610.48,1380.78 1599.28,1379.88 1589.88,1381.58C1575.08,1384.28 1559.48,1396.68 1553.28,1410.78C1544.18,1431.08 1548.38,1453.18 1564.18,1468.98C1571.18,1476.08 1577.98,1480.08 1587.38,1482.68C1594.68,1484.68 1609.98,1484.08 1616.88,1481.48ZM1898.38,1411.58C1888.78,1409.78 1876.88,1407.58 1871.88,1406.68C1854.78,1403.58 1837.88,1404.18 1825.78,1408.18L1819.28,1410.38L1813.58,1405.08C1792.98,1385.68 1791.78,1384.38 1791.98,1381.08C1792.28,1376.98 1795.48,1373.88 1799.08,1373.98C1802.38,1374.08 1920.38,1396.88 1921.08,1397.48C1921.28,1397.78 1920.88,1401.78 1920.18,1406.58C1919.28,1413.28 1918.68,1415.18 1917.38,1415.08C1916.58,1414.98 1907.98,1413.48 1898.38,1411.58Z" style="fill:rgb(30,215,96);fill-opacity:0.57;fill-rule:nonzero;" />
        </g>
        <g id="pZbRrO3YO1" id="pZbRrO3YO" transform="matrix(0.6371,0,0,0.726692,-634.868,-679.022)">
          <path d="M1842.88,1548.58C1841.78,1548.38 1837.88,1547.48 1834.28,1546.58C1807.88,1540.58 1786.88,1516.78 1783.78,1489.28C1783.28,1484.98 1782.68,1483.08 1781.48,1482.68C1780.58,1482.48 1768.68,1479.98 1754.88,1477.18C1725.58,1471.38 1720.78,1469.38 1711.58,1459.78C1703.68,1451.48 1697.98,1441.88 1688.38,1420.68C1683.88,1410.78 1676.88,1395.68 1672.88,1387.18C1668.88,1378.68 1664.58,1368.88 1663.28,1365.48C1661.98,1361.98 1660.58,1359.18 1660.28,1359.18C1659.88,1359.18 1656.38,1364.08 1652.38,1370.18L1645.18,1381.08L1650.78,1387.38C1657.18,1394.58 1662.18,1403.58 1665.38,1413.68C1668.68,1424.18 1668.58,1441.78 1665.08,1452.48C1657.18,1476.78 1636.48,1494.98 1611.78,1499.28C1607.88,1499.98 1600.98,1500.18 1595.48,1499.88C1571.88,1498.58 1550.48,1484.28 1539.88,1462.88C1524.88,1432.58 1533.48,1397.48 1561.08,1377.08C1577.38,1364.88 1601.58,1361.18 1621.28,1367.78C1623.68,1368.58 1626.38,1369.68 1627.28,1370.18C1629.08,1371.08 1631.78,1367.48 1656.58,1329.18C1666.88,1313.28 1671.28,1308.38 1678.18,1304.98C1685.28,1301.58 1690.98,1301.68 1709.38,1305.18C1718.48,1306.98 1725.98,1308.48 1726.18,1308.68C1726.38,1308.78 1725.68,1313.08 1724.78,1318.08C1723.38,1325.58 1722.78,1327.18 1721.48,1326.78C1717.68,1325.68 1691.68,1320.98 1689.08,1320.88C1687.58,1320.88 1685.28,1321.88 1683.88,1323.18C1680.68,1326.18 1666.88,1347.08 1667.68,1347.78C1667.98,1348.18 1675.68,1349.88 1684.68,1351.58C1693.78,1353.38 1702.28,1355.58 1703.68,1356.48C1706.18,1358.08 1708.68,1362.68 1717.18,1381.68C1727.08,1403.98 1726.78,1402.78 1725.38,1410.38C1724.78,1414.18 1723.18,1419.18 1721.98,1421.48C1718.48,1427.88 1717.98,1432.48 1719.98,1438.78C1723.38,1449.48 1732.28,1455.38 1747.38,1456.68C1749.58,1456.88 1756.78,1457.88 1769.58,1459.78C1771.38,1459.98 1775.78,1460.48 1779.38,1460.78L1785.88,1461.38L1788.78,1454.28C1795.68,1437.18 1811.88,1422.28 1829.78,1416.58C1850.68,1409.88 1873.68,1413.48 1890.68,1426.08C1902.78,1434.98 1913.38,1450.68 1916.88,1464.78C1920.48,1479.18 1918.58,1496.48 1911.98,1510.28C1907.88,1518.88 1899.28,1529.68 1892.58,1534.68C1886.58,1539.18 1874.68,1544.98 1868.08,1546.78C1862.58,1548.18 1846.28,1549.38 1842.88,1548.58ZM1861.58,1531.68C1894.18,1525.08 1912.08,1488.58 1897.48,1458.68C1888.98,1441.38 1873.28,1430.68 1854.68,1429.48C1839.18,1428.38 1825.18,1433.68 1814.68,1444.28C1809.48,1449.68 1802.38,1460.18 1802.38,1462.78C1802.38,1463.78 1805.28,1464.48 1815.88,1465.78C1817.58,1465.98 1822.38,1466.68 1826.58,1467.18C1830.88,1467.78 1835.78,1468.48 1837.58,1468.68C1839.38,1468.98 1844.48,1469.58 1848.88,1470.18C1853.28,1470.78 1859.08,1471.58 1861.88,1471.78C1864.58,1472.08 1867.08,1472.48 1867.28,1472.78C1868.18,1473.68 1862.98,1498.18 1861.98,1498.18C1861.38,1498.18 1847.18,1495.48 1830.38,1492.18C1813.68,1488.98 1799.78,1486.38 1799.68,1486.58C1799.48,1486.78 1799.88,1489.28 1800.48,1492.28C1803.38,1506.28 1814.38,1520.58 1826.88,1526.78C1837.98,1532.28 1850.18,1533.98 1861.58,1531.68ZM1616.88,1481.48C1631.28,1476.08 1640.18,1468.08 1646.48,1454.88C1653.78,1439.58 1653.78,1424.38 1646.58,1409.28C1644.48,1404.98 1637.38,1395.18 1636.38,1395.18C1636.08,1395.28 1629.38,1405.18 1621.48,1417.28C1607.18,1439.18 1604.48,1442.18 1599.38,1442.18C1598.18,1442.18 1595.88,1440.88 1594.28,1439.28C1588.58,1433.58 1589.98,1430.28 1610.08,1400.48C1620.48,1385.08 1620.58,1384.78 1618.28,1383.88C1610.48,1380.78 1599.28,1379.88 1589.88,1381.58C1575.08,1384.28 1559.48,1396.68 1553.28,1410.78C1544.18,1431.08 1548.38,1453.18 1564.18,1468.98C1571.18,1476.08 1577.98,1480.08 1587.38,1482.68C1594.68,1484.68 1609.98,1484.08 1616.88,1481.48ZM1898.38,1411.58C1888.78,1409.78 1876.88,1407.58 1871.88,1406.68C1854.78,1403.58 1837.88,1404.18 1825.78,1408.18L1819.28,1410.38L1813.58,1405.08C1792.98,1385.68 1791.78,1384.38 1791.98,1381.08C1792.28,1376.98 1795.48,1373.88 1799.08,1373.98C1802.38,1374.08 1920.38,1396.88 1921.08,1397.48C1921.28,1397.78 1920.88,1401.78 1920.18,1406.58C1919.28,1413.28 1918.68,1415.18 1917.38,1415.08C1916.58,1414.98 1907.98,1413.48 1898.38,1411.58Z" style="fill:rgb(30,215,96);fill-rule:nonzero;" />
        </g>
        <g transform="matrix(-0.485214,0.889348,-0.683575,-0.485214,937.271,74.6786)">
          <g transform="matrix(0.64244,0.192405,-0.168684,0.732783,132.161,-926.473)">
            <path d="M854.635,1653.22C891.018,1665.67 929.737,1665.97 970.965,1653.22" style="fill:white;stroke:rgb(30,215,96);stroke-width:17.42px;" />
          </g>
          <g transform="matrix(0.474453,0.142094,-0.11507,0.499879,202.392,-512.163)">
            <path d="M854.635,1653.22C891.018,1665.67 929.737,1665.97 970.965,1653.22" style="fill:white;stroke:rgb(30,215,96);stroke-width:21.44px;" />
          </g>
          <g transform="matrix(0.283255,0.0848323,-0.0686985,0.298435,304.918,-140.081)">
            <path d="M854.635,1653.22C891.018,1665.67 929.737,1665.97 970.965,1653.22" style="fill:white;stroke:rgb(30,215,96);stroke-width:25.66px;" />
          </g>
        </g>
      </g>
    </g>
    <g transform="matrix(2.10775,0,0,1.84789,179.704,1423.23)">
      <g transform="matrix(0.47444,0,0,0.541158,-25.3954,-707.28)">
        <text x="861.605px" y="2150.81px" style="font-family:'ShareTechMono-Regular', 'Share Tech Mono', monospace;font-size:68.926px;fill:rgb(30,215,96);">SPODDIFY</text>
      </g>
    </g>
    <g transform="matrix(2.10775,0,0,1.84789,179.704,1423.23)">
      <g transform="matrix(0.47444,0,0,0.541158,-6.36317,-673.322)">
        <text x="861.605px" y="2150.81px" style="font-family:'ShareTechMono-Regular', 'Share Tech Mono', monospace;font-size:68.926px;fill:rgb(30,215,96);">MOPPED</text>
      </g>
    </g>
    <g transform="matrix(2.10775,0,0,1.84789,179.704,1423.23)">
      <g transform="matrix(0.542081,0,0,0.423676,-161.589,-518.895)">
        <rect x="830.972" y="1775.8" width="612.655" height="638.646" style="fill:none;" />
      </g>
    </g>
  </g>
</svg>
